<svg width="16" height="16" viewBox="0 0 16 16" fill="none" xmlns="http://www.w3.org/2000/svg">
<g clip-path="url(#clip0_28_6614)">
<g clip-path="url(#clip1_28_6614)">
<path d="M5.08189 3.34037C4.81591 3.09652 4.39475 3.09652 4.15085 3.36248L0.182887 7.52996C-0.0609623 7.79589 -0.0609623 8.19503 0.182887 8.43886L4.12868 12.6063C4.26166 12.7393 4.43901 12.8058 4.61639 12.8058C4.77161 12.8058 4.94882 12.7393 5.08198 12.6285C5.34791 12.3846 5.37019 11.9634 5.10409 11.6974L1.5795 7.99546L5.10409 4.2935C5.34791 4.02753 5.34791 3.60634 5.08198 3.34022L5.08189 3.34037Z" fill="black"/>
<path d="M15.7889 7.53074L11.8431 3.36327C11.5993 3.09731 11.1781 3.07505 10.9121 3.34116C10.6461 3.58501 10.6239 4.00622 10.89 4.27219L14.3923 7.99624L10.8677 11.6982C10.6239 11.9642 10.6239 12.3854 10.8898 12.6292C11.0228 12.7401 11.1781 12.8066 11.3554 12.8066C11.5328 12.8066 11.7101 12.7401 11.8431 12.6071L15.7889 8.43964C16.0328 8.19581 16.0328 7.79689 15.7889 7.53074Z" fill="black"/>
<path d="M9.46983 1.58984C9.11507 1.50124 8.76036 1.72282 8.67176 2.07753L6.01172 13.6046C5.92312 13.9593 6.14471 14.314 6.49942 14.4026C6.56591 14.4247 6.6103 14.4247 6.65451 14.4247C6.96484 14.4247 7.23082 14.2252 7.29727 13.9149L9.95731 2.38786C10.0461 2.03314 9.82449 1.65635 9.46983 1.58984Z" fill="black"/>
</g>
</g>
<defs>
<clipPath id="clip0_28_6614">
<rect width="16" height="16" fill="white"/>
</clipPath>
<clipPath id="clip1_28_6614">
<rect width="16" height="12.8602" fill="white" transform="translate(0 1.57031)"/>
</clipPath>
</defs>
</svg>
