<svg width="20" height="20" viewBox="0 0 20 20" fill="none" xmlns="http://www.w3.org/2000/svg">
<path d="M10.0008 6.50438C9.30962 6.50438 8.634 6.70934 8.05938 7.09329C7.48472 7.47729 7.03681 8.023 6.77234 8.66157C6.50786 9.3001 6.43862 10.0027 6.57348 10.6805C6.70829 11.3584 7.0411 11.9811 7.52981 12.4698C8.01853 12.9585 8.64119 13.2913 9.31905 13.4261C9.99691 13.561 10.6995 13.4918 11.3381 13.2272C11.9766 12.9628 12.5223 12.5149 12.9063 11.9402C13.2902 11.3656 13.4952 10.69 13.4952 9.99881C13.4942 9.07234 13.1258 8.18405 12.4706 7.52895C11.8155 6.87381 10.9272 6.50534 10.0008 6.50438ZM10.0008 12.3284C9.54 12.3284 9.08962 12.1918 8.70648 11.9358C8.32338 11.6799 8.02481 11.316 7.84848 10.8903C7.67215 10.4646 7.626 9.99624 7.71591 9.54434C7.80581 9.09243 8.02767 8.67734 8.35348 8.35153C8.67929 8.02572 9.09438 7.80386 9.54629 7.71395C9.99819 7.62405 10.4666 7.67019 10.8923 7.84653C11.318 8.02286 11.6818 8.32143 11.9378 8.70453C12.1938 9.08767 12.3304 9.53805 12.3304 9.99881C12.3304 10.6167 12.085 11.2092 11.6481 11.6461C11.2112 12.083 10.6186 12.3284 10.0008 12.3284ZM16.4072 10.156C16.4101 10.0512 16.4101 9.94638 16.4072 9.84157L17.4934 8.48457C17.5504 8.41329 17.5898 8.32967 17.6085 8.24038C17.6272 8.15115 17.6247 8.05872 17.6012 7.97057C17.4231 7.30124 17.1568 6.65862 16.8091 6.05957C16.7636 5.98119 16.7004 5.91448 16.6246 5.86481C16.5487 5.81515 16.4623 5.78386 16.3723 5.77348L14.6455 5.58124C14.5736 5.50553 14.5008 5.43276 14.4271 5.36286L14.2232 3.63165C14.2127 3.54154 14.1813 3.45512 14.1315 3.37928C14.0817 3.30344 14.0149 3.24029 13.9364 3.19485C13.3371 2.84785 12.6945 2.58175 12.0253 2.40351C11.9372 2.38006 11.8447 2.37766 11.7554 2.39651C11.6662 2.41535 11.5826 2.4549 11.5114 2.51198L10.158 3.59234H9.84353L8.48653 2.50834C8.41524 2.45139 8.33162 2.41196 8.24234 2.39325C8.1531 2.37454 8.06067 2.37705 7.97253 2.40059C7.30334 2.57897 6.66072 2.84532 6.06153 3.19267C5.98315 3.23819 5.91643 3.30138 5.86677 3.37721C5.8171 3.45304 5.78581 3.53942 5.77543 3.62947L5.58319 5.35924C5.50748 5.43153 5.43472 5.50434 5.36481 5.57762L3.63361 5.77638C3.54349 5.78686 3.45707 5.81824 3.38123 5.86805C3.30539 5.91786 3.24224 5.98467 3.1968 6.06319C2.8498 6.66248 2.5837 7.30505 2.40546 7.97424C2.38202 8.06238 2.37962 8.15486 2.39846 8.24415C2.4173 8.33343 2.45686 8.417 2.51393 8.48819L3.5943 9.84157V10.156L2.51029 11.5131C2.45334 11.5843 2.41392 11.668 2.3952 11.7572C2.37649 11.8465 2.379 11.9389 2.40255 12.0271C2.58061 12.6964 2.84697 13.339 3.19462 13.938C3.24014 14.0165 3.30333 14.0831 3.37916 14.1328C3.45499 14.1825 3.54137 14.2138 3.63143 14.2242L5.35824 14.4164C5.43057 14.4921 5.50338 14.5649 5.57667 14.6348L5.77834 16.366C5.78881 16.4561 5.82019 16.5425 5.87 16.6183C5.91981 16.6942 5.98662 16.7573 6.06515 16.8028C6.66443 17.1498 7.307 17.4159 7.97619 17.5941C8.06434 17.6176 8.15681 17.62 8.2461 17.6011C8.33538 17.5823 8.41896 17.5427 8.49015 17.4857L9.84353 16.4053C9.94834 16.4082 10.0532 16.4082 10.158 16.4053L11.515 17.4915C11.5863 17.5484 11.6699 17.5879 11.7592 17.6066C11.8484 17.6253 11.9409 17.6228 12.029 17.5992C12.6983 17.4211 13.341 17.1548 13.94 16.8071C14.0184 16.7616 14.0851 16.6984 14.1348 16.6226C14.1844 16.5468 14.2157 16.4604 14.2261 16.3703L14.4183 14.6435C14.4941 14.5717 14.5668 14.4989 14.6367 14.4251L16.3679 14.2212C16.458 14.2108 16.5445 14.1794 16.6203 14.1296C16.6961 14.0798 16.7593 14.013 16.8047 13.9344C17.1517 13.3351 17.4178 12.6926 17.5961 12.0234C17.6195 11.9352 17.6219 11.8428 17.6031 11.7535C17.5842 11.6642 17.5447 11.5806 17.4876 11.5094L16.4072 10.156ZM15.2351 9.68286C15.2475 9.89334 15.2475 10.1043 15.2351 10.3148C15.2265 10.4589 15.2716 10.6011 15.3618 10.7137L16.3949 12.0045C16.2763 12.3812 16.1245 12.7466 15.9413 13.0965L14.296 13.2829C14.1527 13.2988 14.0204 13.3672 13.9247 13.475C13.7846 13.6327 13.6353 13.7819 13.4777 13.922C13.3699 14.0178 13.3014 14.15 13.2855 14.2933L13.1028 15.9372C12.753 16.1205 12.3876 16.2723 12.0108 16.3907L10.7193 15.3577C10.616 15.2751 10.4876 15.2302 10.3553 15.2303H10.3204C10.1099 15.2427 9.89891 15.2427 9.68843 15.2303C9.54438 15.2216 9.40219 15.2668 9.28953 15.357L7.9951 16.3907C7.61838 16.2722 7.25296 16.1204 6.9031 15.9372L6.71672 14.2941C6.70081 14.1508 6.63234 14.0185 6.52453 13.9228C6.36691 13.7826 6.21767 13.6334 6.07753 13.4758C5.98181 13.368 5.84953 13.2995 5.70624 13.2836L4.06241 13.1001C3.87909 12.7503 3.7273 12.3849 3.60886 12.0081L4.6419 10.7166C4.7321 10.604 4.77724 10.4618 4.76857 10.3177C4.7562 10.1072 4.7562 9.89624 4.76857 9.68576C4.77724 9.54167 4.7321 9.39953 4.6419 9.28681L3.60886 7.99315C3.72739 7.61643 3.87917 7.251 4.06241 6.90115L5.70553 6.71476C5.84881 6.69886 5.9811 6.63038 6.07681 6.52257C6.21696 6.36495 6.36619 6.21572 6.52381 6.07557C6.63205 5.97981 6.70081 5.84719 6.71672 5.70357L6.89943 4.06045C7.24924 3.87714 7.61472 3.72535 7.99148 3.6069L9.28296 4.63994C9.39562 4.73015 9.53781 4.77529 9.68191 4.76662C9.89234 4.75425 10.1033 4.75425 10.3138 4.76662C10.4579 4.77529 10.6001 4.73015 10.7128 4.63994L12.0064 3.6069C12.3831 3.72544 12.7486 3.87722 13.0984 4.06045L13.2848 5.70357C13.3007 5.84686 13.3692 5.97914 13.477 6.07486C13.6346 6.215 13.7839 6.36424 13.924 6.52186C14.0197 6.62967 14.152 6.69814 14.2953 6.71405L15.9391 6.89676C16.1224 7.24657 16.2742 7.61205 16.3927 7.98876L15.3596 9.28029C15.2686 9.39391 15.2234 9.53753 15.233 9.68286H15.2351Z" fill="black"/>
</svg>
