<svg width="16" height="16" viewBox="0 0 16 16" fill="none" xmlns="http://www.w3.org/2000/svg">
<g clip-path="url(#clip0_28_6660)">
<g clip-path="url(#clip1_28_6660)">
<g clip-path="url(#clip2_28_6660)">
<path d="M15.4284 13.1428H7.91866C7.66328 12.1597 6.77615 11.4286 5.71422 11.4286C4.65207 11.4286 3.76522 12.1599 3.50974 13.1428H0.571453C0.255636 13.1428 0 13.3986 0 13.7143C0 14.0299 0.255629 14.2858 0.571453 14.2858H3.50974C3.7651 15.2689 4.65224 16 5.71422 16C6.77631 16 7.66317 15.2687 7.91866 14.2858H15.4284C15.7442 14.2858 15.9998 14.03 15.9998 13.7143C15.9998 13.3988 15.7443 13.1428 15.4284 13.1428ZM5.71427 14.8572C5.08424 14.8572 4.57136 14.3446 4.57136 13.7143C4.57136 13.0839 5.08407 12.5714 5.71427 12.5714C6.34431 12.5714 6.85719 13.0839 6.85719 13.7143C6.85703 14.3446 6.34431 14.8572 5.71427 14.8572ZM15.4284 7.42854H12.4903C12.2349 6.44552 11.3478 5.71432 10.2858 5.71432C9.22369 5.71432 8.33683 6.44563 8.08134 7.42854H0.571592C0.255772 7.42854 0.000136237 7.68434 0.000136237 8.00005C0.000136237 8.31561 0.255765 8.57151 0.571592 8.57151H8.08134C8.33672 9.55458 9.22385 10.2857 10.2858 10.2857C11.3479 10.2857 12.2348 9.55443 12.4903 8.57151H15.4285C15.7444 8.57151 16 8.31572 16 8.00005C16 7.68449 15.7444 7.42854 15.4285 7.42854H15.4284ZM10.2856 9.14292C9.65559 9.14292 9.14271 8.63035 9.14271 8C9.14271 7.36965 9.65543 6.85708 10.2856 6.85708C10.9157 6.85708 11.4285 7.36965 11.4285 8C11.4285 8.63035 10.9158 9.14292 10.2856 9.14292ZM0.571489 2.85717H3.50978C3.76514 3.84024 4.65228 4.5714 5.71422 4.5714C6.77636 4.5714 7.66323 3.8401 7.91871 2.85717H15.4284C15.7443 2.85717 15.9999 2.6014 15.9999 2.2857C15.9999 1.97014 15.7443 1.71423 15.4284 1.71423H7.91871C7.66307 0.731164 6.77631 0 5.71422 0C4.65211 0 3.76525 0.731298 3.50978 1.71423H0.571489C0.25567 1.71423 3.42539e-05 1.97 3.42539e-05 2.2857C3.42539e-05 2.60126 0.255663 2.85717 0.571489 2.85717ZM5.71427 1.1428C6.34431 1.1428 6.85719 1.65539 6.85719 2.28573C6.85719 2.91608 6.34446 3.42867 5.71427 3.42867C5.08424 3.42867 4.57136 2.91608 4.57136 2.28573C4.57136 1.65539 5.08407 1.1428 5.71427 1.1428Z" fill="black"/>
</g>
</g>
</g>
<defs>
<clipPath id="clip0_28_6660">
<rect width="16" height="16" fill="white"/>
</clipPath>
<clipPath id="clip1_28_6660">
<rect width="16" height="16" fill="white"/>
</clipPath>
<clipPath id="clip2_28_6660">
<rect width="16" height="16" fill="white"/>
</clipPath>
</defs>
</svg>
