<svg width="16" height="16" viewBox="0 0 16 16" fill="none" xmlns="http://www.w3.org/2000/svg">
<g clip-path="url(#clip0_28_6625)">
<path fill-rule="evenodd" clip-rule="evenodd" d="M5.49413 4.8765C4.15889 4.8765 3.06641 3.78401 3.06641 2.44877C3.06641 1.11385 4.15889 0.0214844 5.49413 0.0214844H10.33C11.6649 0.0214844 12.7574 1.11385 12.7574 2.44877C12.7574 3.78401 11.6649 4.8765 10.33 4.8765H5.49413Z" fill="black"/>
<path fill-rule="evenodd" clip-rule="evenodd" d="M5.42683 10.4345H7.89838V5.57812H5.42683C4.76049 5.57812 4.15322 5.85106 3.71308 6.29121C3.27303 6.73136 3 7.33908 3 8.00755C3 9.34201 4.09202 10.4345 5.42683 10.4345Z" fill="black"/>
<path fill-rule="evenodd" clip-rule="evenodd" d="M10.5644 5.62695C9.224 5.62695 8.13672 6.7137 8.13672 8.05468C8.13672 9.39524 9.224 10.482 10.5644 10.482C11.905 10.482 12.9922 9.39524 12.9922 8.05468C12.9922 6.71365 11.905 5.62695 10.5644 5.62695Z" fill="black"/>
<path fill-rule="evenodd" clip-rule="evenodd" d="M7.89714 11.125H5.38234V11.1299C4.08469 11.1784 3.04688 12.2429 3.04688 13.5527C3.04688 14.8933 4.13372 15.9801 5.47416 15.9801C6.77317 15.9801 7.83108 14.9589 7.89578 13.6762H7.89714V13.6486C7.89838 13.6166 7.90189 13.5851 7.90189 13.5528C7.90189 13.5204 7.89838 13.4889 7.89714 13.4565V11.125Z" fill="black"/>
</g>
<defs>
<clipPath id="clip0_28_6625">
<rect width="16" height="16" fill="white"/>
</clipPath>
</defs>
</svg>
