<svg width="16" height="16" viewBox="0 0 16 16" fill="none" xmlns="http://www.w3.org/2000/svg">
<g clip-path="url(#clip0_28_6687)">
<g clip-path="url(#clip1_28_6687)">
<path d="M11.8323 5.68168C11.8323 5.68168 10.5389 9.74396 10.4335 10.0793C10.3952 9.73438 9.44671 2.44336 9.44671 2.44336C7.24311 2.44336 6.06467 4.01462 5.44192 5.6721C5.44192 5.6721 3.87066 9.74396 3.73653 10.0889C3.72695 9.7727 3.49701 5.72001 3.49701 5.72001C3.36287 3.68887 1.50419 2.45294 0 2.45294L1.82036 13.4996C4.12934 13.4901 5.37485 11.9284 6.02635 10.2709C6.02635 10.2709 7.41557 6.67809 7.47305 6.51522C7.48264 6.66851 8.46946 13.4996 8.46946 13.4996C10.788 13.4996 12.0335 12.0338 12.7042 10.4338L15.9521 2.45294C13.6623 2.45294 12.4551 4.01462 11.8323 5.68168Z" fill="black"/>
</g>
</g>
<defs>
<clipPath id="clip0_28_6687">
<rect width="16" height="16" fill="white"/>
</clipPath>
<clipPath id="clip1_28_6687">
<rect width="16" height="11.1138" fill="white" transform="translate(0 2.44336)"/>
</clipPath>
</defs>
</svg>
