<svg width="33" height="33" viewBox="0 0 33 33" fill="none" xmlns="http://www.w3.org/2000/svg">
<path d="M21.361 16.7373C20.4957 18.0193 19.1255 18.9247 17.5311 19.157C17.2586 19.2051 16.9782 19.2291 16.6898 19.2291C16.4013 19.2291 16.1209 19.2051 15.8485 19.157C14.254 18.9247 12.8839 18.0193 12.0185 16.7373C11.4256 15.8479 11.0811 14.7822 11.0811 13.6204C11.0811 10.5196 13.5889 8.01172 16.6898 8.01172C19.7906 8.01172 22.2985 10.5196 22.2985 13.6204C22.2985 14.7822 21.9539 15.8479 21.361 16.7373Z" stroke="black" stroke-width="1.20187" stroke-linecap="round" stroke-linejoin="round"/>
<path d="M22.7761 21.5215C22.4796 21.5936 22.2473 21.818 22.1832 22.1144L21.9027 23.2923C21.7505 23.9333 20.9332 24.1256 20.5086 23.6208L16.6867 19.23L12.8647 23.6288C12.4401 24.1336 11.6228 23.9413 11.4706 23.3003L11.1901 22.1224C11.118 21.826 10.8856 21.5936 10.5972 21.5295L9.27514 21.217C8.6662 21.0728 8.44986 20.3116 8.89055 19.8709L12.0154 16.7461C12.8807 18.0281 14.2509 18.9335 15.8453 19.1659C16.1178 19.2139 16.3982 19.238 16.6867 19.238C16.9751 19.238 17.2555 19.2139 17.528 19.1659C19.1224 18.9335 20.4926 18.0281 21.3579 16.7461L24.4828 19.8709C24.9234 20.3036 24.7071 21.0648 24.0982 21.209L22.7761 21.5215Z" stroke="black" stroke-width="1.20187" stroke-linecap="round" stroke-linejoin="round"/>
<path d="M17.6268 12.1465C17.6909 12.2747 17.8592 12.4029 18.0114 12.4269L18.8687 12.5711C19.4136 12.6593 19.5418 13.0599 19.1492 13.4525L18.4841 14.1175C18.372 14.2297 18.3079 14.446 18.3479 14.6063L18.5402 15.4316C18.6925 16.0806 18.3479 16.337 17.771 15.9924L16.9698 15.5197C16.8256 15.4316 16.5852 15.4316 16.441 15.5197L15.6397 15.9924C15.0628 16.3289 14.7183 16.0806 14.8705 15.4316L15.0628 14.6063C15.0949 14.4541 15.0388 14.2297 14.9266 14.1175L14.2616 13.4525C13.869 13.0599 13.9972 12.6673 14.542 12.5711L15.3994 12.4269C15.5436 12.4029 15.7118 12.2747 15.7759 12.1465L16.2487 11.201C16.481 10.6882 16.8977 10.6882 17.1541 11.201L17.6268 12.1465Z" stroke="black" stroke-width="1.20187" stroke-linecap="round" stroke-linejoin="round"/>
</svg>
