<svg width="33" height="33" viewBox="0 0 33 33" fill="none" xmlns="http://www.w3.org/2000/svg">
<path d="M9.06104 18.2436C9.06104 19.9422 9.06104 19.9422 10.6635 21.0239L15.0704 23.5719C15.7354 23.9565 16.8171 23.9565 17.4741 23.5719L21.8809 21.0239C23.4834 19.9422 23.4834 19.9422 23.4834 18.2516V13.6204C23.4834 11.9298 23.4834 11.9298 21.8809 10.8481L17.4741 8.30017C16.8171 7.91557 15.7354 7.91557 15.0704 8.30017L10.6635 10.8481C9.06104 11.9298 9.06104 11.9298 9.06104 13.6204V18.2436Z" stroke="black" stroke-width="1.20187" stroke-linecap="round" stroke-linejoin="round"/>
<path fill-rule="evenodd" clip-rule="evenodd" d="M16.2724 18.3387C14.9448 18.3387 13.8687 17.2625 13.8687 15.935C13.8687 14.6074 14.9448 13.5312 16.2724 13.5312C17.5999 13.5312 18.6761 14.6074 18.6761 15.935C18.6761 17.2625 17.5999 18.3387 16.2724 18.3387Z" stroke="black" stroke-width="1.20187" stroke-linecap="round" stroke-linejoin="round"/>
</svg>
