<svg width="8" height="9" viewBox="0 0 8 9" fill="none" xmlns="http://www.w3.org/2000/svg">
<path d="M6.92967 2.65992L3.08984 6.49974C3.06755 6.52206 3.04108 6.53976 3.01195 6.55184C2.98282 6.56391 2.95159 6.57013 2.92005 6.57013C2.88851 6.57013 2.85728 6.56391 2.82815 6.55184C2.79901 6.53976 2.77254 6.52206 2.75026 6.49974L1.07033 4.81982C1.0253 4.77479 1 4.71371 1 4.65003C1 4.58634 1.0253 4.52527 1.07033 4.48023C1.11536 4.4352 1.17644 4.4099 1.24012 4.4099C1.30381 4.4099 1.36488 4.4352 1.40992 4.48023L2.92005 5.99067L6.59008 2.32033C6.63512 2.2753 6.69619 2.25 6.75988 2.25C6.82356 2.25 6.88464 2.2753 6.92967 2.32033C6.9747 2.36536 7 2.42644 7 2.49012C7 2.55381 6.9747 2.61488 6.92967 2.65992Z" fill="#FBFBFB"/>
</svg>
