<svg width="16" height="16" viewBox="0 0 16 16" fill="none" xmlns="http://www.w3.org/2000/svg">
<g clip-path="url(#clip0_28_6678)">
<g clip-path="url(#clip1_28_6678)">
<g clip-path="url(#clip2_28_6678)">
<path fill-rule="evenodd" clip-rule="evenodd" d="M8 0C3.58172 0 0 3.58172 0 8C0 12.4183 3.58172 16 8 16C12.4183 16 16 12.4183 16 8C16 3.58172 12.4183 0 8 0ZM11.3058 4.14082H6.94217C6.67437 4.14082 6.45732 4.35789 6.45732 4.62567C6.45732 4.89344 6.67437 5.11052 6.94217 5.11052H10.1353L3.9596 11.2862L4.64527 11.9719L10.821 5.7962V8.98931C10.821 9.2571 11.038 9.47415 11.3058 9.47415C11.5736 9.47415 11.7907 9.2571 11.7907 8.98931V4.62567C11.7907 4.35789 11.5736 4.14082 11.3058 4.14082Z" fill="black"/>
</g>
</g>
</g>
<defs>
<clipPath id="clip0_28_6678">
<rect width="16" height="16" fill="white"/>
</clipPath>
<clipPath id="clip1_28_6678">
<rect width="16" height="16" fill="white"/>
</clipPath>
<clipPath id="clip2_28_6678">
<rect width="16" height="16" fill="white"/>
</clipPath>
</defs>
</svg>
