<svg width="16" height="16" viewBox="0 0 16 16" fill="none" xmlns="http://www.w3.org/2000/svg">
<g clip-path="url(#clip0_28_6600)">
<g clip-path="url(#clip1_28_6600)">
<g clip-path="url(#clip2_28_6600)">
<path d="M13.8361 2.35938H2.15625V14.0392H13.8361V2.35938Z" stroke="black" stroke-width="0.893855"/>
<path d="M14.2852 3.62313C15.2301 3.62313 15.9962 2.8571 15.9962 1.91215C15.9962 0.967204 15.2301 0.201172 14.2852 0.201172C13.3403 0.201172 12.5742 0.967204 12.5742 1.91215C12.5742 2.8571 13.3403 3.62313 14.2852 3.62313Z" fill="black"/>
<path d="M7.97766 12.3772C10.2521 12.3772 12.096 10.5334 12.096 8.25891C12.096 5.98445 10.2521 4.14062 7.97766 4.14062C5.7032 4.14062 3.85938 5.98445 3.85938 8.25891C3.85938 10.5334 5.7032 12.3772 7.97766 12.3772Z" fill="black"/>
<path d="M14.2852 15.7989C15.2301 15.7989 15.9962 15.0329 15.9962 14.0879C15.9962 13.143 15.2301 12.377 14.2852 12.377C13.3403 12.377 12.5742 13.143 12.5742 14.0879C12.5742 15.0329 13.3403 15.7989 14.2852 15.7989Z" fill="black"/>
<path d="M1.71098 15.7989C2.65593 15.7989 3.42196 15.0329 3.42196 14.0879C3.42196 13.143 2.65593 12.377 1.71098 12.377C0.766032 12.377 0 13.143 0 14.0879C0 15.0329 0.766032 15.7989 1.71098 15.7989Z" fill="black"/>
<path d="M1.71098 3.62313C2.65593 3.62313 3.42196 2.8571 3.42196 1.91215C3.42196 0.967204 2.65593 0.201172 1.71098 0.201172C0.766032 0.201172 0 0.967204 0 1.91215C0 2.8571 0.766032 3.62313 1.71098 3.62313Z" fill="black"/>
</g>
</g>
</g>
<defs>
<clipPath id="clip0_28_6600">
<rect width="16" height="16" fill="white"/>
</clipPath>
<clipPath id="clip1_28_6600">
<rect width="16" height="16" fill="white"/>
</clipPath>
<clipPath id="clip2_28_6600">
<rect width="16" height="15.5978" fill="white" transform="translate(0 0.201172)"/>
</clipPath>
</defs>
</svg>
