<svg width="16" height="16" viewBox="0 0 16 16" fill="none" xmlns="http://www.w3.org/2000/svg">
<g clip-path="url(#clip0_28_6669)">
<g clip-path="url(#clip1_28_6669)">
<g clip-path="url(#clip2_28_6669)">
<path fill-rule="evenodd" clip-rule="evenodd" d="M8 16C12.4183 16 16 12.4183 16 8C16 3.58172 12.4183 0 8 0C3.58172 0 0 3.58172 0 8C0 12.4183 3.58172 16 8 16ZM6.89005 12.7483L10.6946 7.44066L10.6945 7.44062C10.7593 7.34275 10.781 7.21218 10.727 7.10349C10.673 6.99468 10.5541 6.92943 10.4352 6.92943H8.75985L9.28947 3.47077C9.31112 3.31852 9.22462 3.16625 9.08411 3.11185C8.94356 3.05745 8.78147 3.11185 8.69501 3.24234L5.32279 8.53912C5.25795 8.64782 5.25794 8.76745 5.312 8.87626C5.36598 8.98503 5.47413 9.05027 5.59303 9.05027H7.2251L6.30635 12.4655C6.26316 12.6177 6.33879 12.7809 6.4793 12.8462C6.52257 12.8679 6.57666 12.8788 6.61985 12.8788C6.72789 12.8788 6.82514 12.8353 6.89005 12.7483Z" fill="black"/>
</g>
</g>
</g>
<defs>
<clipPath id="clip0_28_6669">
<rect width="16" height="16" fill="white"/>
</clipPath>
<clipPath id="clip1_28_6669">
<rect width="16" height="16" fill="white"/>
</clipPath>
<clipPath id="clip2_28_6669">
<rect width="16" height="16" fill="white"/>
</clipPath>
</defs>
</svg>
