<svg width="16" height="16" viewBox="0 0 16 16" fill="none" xmlns="http://www.w3.org/2000/svg">
<g clip-path="url(#clip0_28_6637)">
<g clip-path="url(#clip1_28_6637)">
<g clip-path="url(#clip2_28_6637)">
<path d="M3.53157 2.98356C3.90191 2.61508 3.90191 1.99537 3.53157 1.62688L2.60569 0.705631C2.37002 0.471145 2.5047 0.0524013 2.84135 0.0188724C3.75031 -0.0816068 4.69311 0.219831 5.38319 0.906595C6.07338 1.59336 6.37634 2.5313 6.27539 3.43574C6.20811 3.97178 6.39328 4.50771 6.78041 4.89292L7.47065 5.57967L5.56842 7.47252C5.5347 7.43901 5.50113 7.42228 5.46741 7.38877L4.7604 6.68529C4.40683 6.33345 3.90192 6.14921 3.37998 6.18278C2.5215 6.24969 1.62935 5.94825 0.972838 5.27833C0.350024 4.67536 0.0469587 3.85457 0.080656 3.03382C0.0974473 2.66533 0.5183 2.49778 0.78767 2.74909L1.61255 3.56985C1.98289 3.93833 2.6057 3.93833 2.97604 3.56985L3.53157 2.98356ZM13.0257 12.4303C13.3961 12.0618 14.0189 12.0618 14.3892 12.4303L15.2141 13.251C15.4665 13.5022 15.9043 13.3348 15.9211 12.9663C15.9379 12.1456 15.635 11.3249 15.0122 10.7051C14.3556 10.0519 13.4635 9.75031 12.605 9.80065C12.1 9.83422 11.5949 9.66666 11.2246 9.29814L10.4166 8.49417L8.48057 10.3868C8.51424 10.4203 8.54786 10.4537 8.58153 10.5041L9.18755 11.1071C9.57467 11.4923 9.74306 12.0284 9.69261 12.5643C9.59161 13.4687 9.89457 14.4068 10.5848 15.0934C11.275 15.7802 12.2176 16.0816 13.1266 15.9811C13.4632 15.9476 13.6148 15.5289 13.3623 15.2944L12.4533 14.3565C12.083 13.9881 12.083 13.3683 12.4533 12.9999L13.0257 12.4303ZM7.50431 11.3416L6.52795 10.3701L11.8305 5.14431H13.7832L15.7191 1.25842L14.7427 0.286954L10.8542 2.22993V4.1729L5.56842 9.4155L4.62575 8.47745L0.787686 12.2796C-0.00349426 13.0668 -0.00349426 14.3565 0.787686 15.1605C1.57887 15.9477 2.87509 15.9477 3.68307 15.1605L7.50431 11.3416Z" fill="black"/>
</g>
</g>
</g>
<defs>
<clipPath id="clip0_28_6637">
<rect width="16" height="16" fill="white"/>
</clipPath>
<clipPath id="clip1_28_6637">
<rect width="16" height="16" fill="white"/>
</clipPath>
<clipPath id="clip2_28_6637">
<rect width="15.8436" height="16" fill="white" transform="translate(0.078125)"/>
</clipPath>
</defs>
</svg>
