<svg width="83" height="28" viewBox="0 0 83 28" fill="none" xmlns="http://www.w3.org/2000/svg">
<path d="M-7.43094e-07 11C-7.91376e-07 9.89543 0.89543 9 2 9L9 9L9 17C9 18.1046 9.89543 19 11 19L16 19C17.1046 19 18 19.8954 18 21L18 26C18 27.1046 17.1046 28 16 28L2 28C0.89543 28 -3.91405e-08 27.1046 -8.74228e-08 26L-7.43094e-07 11ZM16 -6.99382e-07C17.1046 -7.47665e-07 18 0.895429 18 2L18 7C18 8.10457 17.1046 9 16 9L9 9L9 2C9 0.895429 9.89543 -4.32543e-07 11 -4.80825e-07L16 -6.99382e-07Z" fill="white"/>
<path d="M35.7154 14V5.92516H41.1455V7.38839H37.3954V9.22013H40.9288V10.6834H37.3954V12.5368H41.1455V14H35.7154ZM42.0979 14V5.92516H43.7237L46.3575 9.42606L48.9263 5.92516H50.5521V14H48.8721V8.79742L46.4334 11.9406H46.2166L43.7779 8.67819V14H42.0979ZM51.984 14V5.92516H55.0839C56.753 5.92516 57.9453 6.81393 57.9453 8.50477C57.9453 10.1631 56.7314 11.0735 55.0839 11.0735H53.664V14H51.984ZM53.664 9.61032H55.0947C55.7992 9.61032 56.2653 9.16594 56.2653 8.50477C56.2653 7.83277 55.7992 7.38839 55.0947 7.38839H53.664V9.61032ZM60.4752 14V7.38839H58.4267V5.92516H64.1712V7.38839H62.1552V14H60.4752ZM67.095 14V10.4774L64.407 5.92516H66.3255L67.9296 8.75406L69.5337 5.92516H71.4522L68.775 10.4666V14H67.095ZM38.6526 25.1301C37.1244 25.1301 35.8237 24.263 35.3577 22.8648L36.7342 22.247C37.1352 23.1357 37.8939 23.6668 38.761 23.6668C39.4439 23.6668 39.8883 23.3308 39.8883 22.8106C39.8883 22.4312 39.6606 22.1711 39.1729 22.0085L37.5905 21.4883C36.3006 21.0655 35.6503 20.2852 35.6503 19.2013C35.6503 17.7814 36.7884 16.7951 38.4467 16.7951C39.8991 16.7951 41.0805 17.5755 41.5357 18.8436L40.1701 19.4614C39.8666 18.7135 39.2271 18.2583 38.4467 18.2583C37.7639 18.2583 37.3086 18.616 37.3086 19.1363C37.3086 19.5156 37.5579 19.7974 38.0457 19.96L39.5956 20.4586C40.8963 20.8813 41.5357 21.6292 41.5357 22.713C41.5357 24.1329 40.3543 25.1301 38.6526 25.1301ZM44.1854 25V18.3884H42.1369V16.9252H47.8814V18.3884H45.8654V25H44.1854ZM51.9216 25.1301C50.014 25.1301 48.6158 23.8186 48.6158 22.041V16.9252H50.2958V21.9326C50.2958 22.8973 50.9786 23.6126 51.9216 23.6126C52.8646 23.6126 53.5474 22.8973 53.5474 21.9326V16.9252H55.2274V22.041C55.2274 23.8186 53.8292 25.1301 51.9216 25.1301ZM56.5566 25V16.9252H59.1904C61.8134 16.9252 63.4934 18.616 63.4934 20.9572C63.4934 23.2983 61.8025 25 59.1904 25H56.5566ZM58.2366 23.5368H59.2337C60.8054 23.5368 61.8134 22.5288 61.8134 20.9572C61.8134 19.3855 60.8054 18.3884 59.2337 18.3884H58.2366V23.5368ZM64.5692 25V16.9252H66.2492V25H64.5692ZM71.7239 25.1301C69.2852 25.1301 67.4426 23.3308 67.4426 20.9572C67.4426 18.5835 69.2744 16.7951 71.7239 16.7951C74.1735 16.7951 76.0052 18.5835 76.0052 20.9572C76.0052 23.3308 74.1626 25.1301 71.7239 25.1301ZM71.7239 23.6126C73.198 23.6126 74.3252 22.5179 74.3252 20.9572C74.3252 19.3964 73.198 18.3125 71.7239 18.3125C70.2499 18.3125 69.1226 19.3964 69.1226 20.9572C69.1226 22.5179 70.2499 23.6126 71.7239 23.6126Z" fill="white"/>
<path d="M75.9853 10V6.99472H75.0542V6.32962H77.6653V6.99472H76.749V10H75.9853ZM78.0435 10V6.32962H78.7825L79.9797 7.92094L81.1473 6.32962H81.8863V10H81.1227V7.63519L80.0142 9.06393H79.9156L78.8071 7.581V10H78.0435Z" fill="white"/>
</svg>
