<svg width="256" height="256" viewBox="0 0 256 256" fill="none" xmlns="http://www.w3.org/2000/svg">
<rect width="256" height="256" fill="#6A4BDE"/>
<rect width="256" height="256" fill="#1F1F1F"/>
<path d="M58.5257 198.902C44.9299 198.902 34 187.972 34 174.91C34 161.581 44.9299 150.651 58.5257 150.651C71.5883 150.651 83.0514 161.581 83.0514 174.91C83.0514 187.972 71.5883 198.902 58.5257 198.902Z" fill="white"/>
<path d="M129.875 193.741H88.8216V60.4489H127.476L130.142 74.3113C138.406 62.8482 153.601 56.1836 170.929 56.1836C202.653 56.1836 221.047 76.444 221.047 111.366V193.741H179.993V121.23C179.993 104.435 170.663 93.5053 156.534 93.5053C140.272 93.5053 129.875 104.169 129.875 120.697V193.741Z" fill="white"/>
</svg>
