<svg width="32" height="32" viewBox="0 0 32 32" fill="none" xmlns="http://www.w3.org/2000/svg">
<rect width="32" height="32" fill="#6A4BDE"/>
<path d="M23.4554 21.3683V20.1394H24.2651C24.7604 20.1394 24.97 19.987 25.1605 19.4726L25.2462 19.244L23.3315 14.3191H24.9033L25.9416 17.3769L27.0943 14.3191H28.6184L26.1988 20.1204C25.7988 21.092 25.2653 21.5016 24.427 21.5016C24.0746 21.5016 23.7411 21.454 23.4554 21.3683Z" fill="#F3F2F5"/>
<path d="M3.80443 19.3062C3.3186 19.3062 2.92804 18.9157 2.92804 18.4489C2.92804 17.9726 3.3186 17.582 3.80443 17.582C4.2712 17.582 4.68081 17.9726 4.68081 18.4489C4.68081 18.9157 4.2712 19.3062 3.80443 19.3062Z" fill="#F3F2F5"/>
<path d="M20.6644 14.3191H21.3216V13.938C21.3216 12.5187 22.0647 11.8995 23.2745 11.8995C23.4745 11.8995 23.7031 11.9185 23.9317 11.9566V13.2141H23.5221C22.922 13.2141 22.7886 13.5284 22.7886 13.938V14.3191H23.9317V15.5384H22.7886V19.082H21.3216V15.5384H20.6644V14.3191Z" fill="#F3F2F5"/>
<path d="M15.541 21.3683V14.3191H16.9223L16.9985 14.9001C17.2652 14.462 17.8654 14.1667 18.5417 14.1667C19.8658 14.1667 20.7898 15.0907 20.7898 16.6243C20.7898 18.1294 19.9706 19.2154 18.5512 19.2154C17.8939 19.2154 17.2843 18.9677 17.008 18.6057V21.3683H15.541ZM17.0175 16.7005C17.0175 17.415 17.4938 17.8913 18.1797 17.8913C18.8751 17.8913 19.3133 17.4055 19.3133 16.7005C19.3133 15.9956 18.8751 15.5098 18.1797 15.5098C17.4938 15.5098 17.0175 15.9861 17.0175 16.7005Z" fill="#F3F2F5"/>
<path d="M12.7615 19.2059C11.3231 19.2059 10.2943 18.158 10.2943 16.691C10.2943 15.205 11.2945 14.1667 12.733 14.1667C14.2285 14.1667 15.1621 15.1478 15.1621 16.7005V17.0721L11.7042 17.0911C11.7899 17.7198 12.1424 18.0151 12.7901 18.0151C13.3426 18.0151 13.7332 17.8151 13.838 17.4721H15.1811C15.0097 18.5295 14.0666 19.2059 12.7615 19.2059ZM12.7425 15.3574C12.1614 15.3574 11.8375 15.6146 11.7232 16.1861H13.7046C13.7046 15.6813 13.3331 15.3574 12.7425 15.3574Z" fill="#F3F2F5"/>
<path d="M6.77514 19.082H5.30815V14.3191H6.68941L6.78467 14.8144C7.07997 14.4048 7.62295 14.1667 8.24214 14.1667C9.37572 14.1667 10.033 14.8906 10.033 16.1385V19.082H8.56602V16.491C8.56602 15.8908 8.23261 15.5003 7.72774 15.5003C7.14665 15.5003 6.77514 15.8813 6.77514 16.4719V19.082Z" fill="#F3F2F5"/>
</svg>
